<svg
    xmlns="http://www.w3.org/2000/svg"
    id="icon58"
    data-functional-selector="icon"
    viewBox="0 0 32 32"
    focusable="false"
    stroke="none"
    strokeWidth="0"
>
    <path
        d="M10.375,17.25 C12.7912458,17.25 14.75,19.2087542 14.75,21.625 C14.75,24.0412458 12.7912458,26 10.375,26 C7.95875422,26 6,24.0412458 6,21.625 C6,19.2087542 7.95875422,17.25 10.375,17.25 Z M21.625,17.25 C24.0412458,17.25 26,19.2087542 26,21.625 C26,24.0412458 24.0412458,26 21.625,26 C19.2087542,26 17.25,24.0412458 17.25,21.625 C17.25,19.2087542 19.2087542,17.25 21.625,17.25 Z M21.625,19.75 C20.5894661,19.75 19.75,20.5894661 19.75,21.625 C19.75,22.6605339 20.5894661,23.5 21.625,23.5 C22.6605339,23.5 23.5,22.6605339 23.5,21.625 C23.5,20.5894661 22.6605339,19.75 21.625,19.75 Z M10.375,6 C12.7912458,6 14.75,7.95875422 14.75,10.375 C14.75,12.7912458 12.7912458,14.75 10.375,14.75 C7.95875422,14.75 6,12.7912458 6,10.375 C6,7.95875422 7.95875422,6 10.375,6 Z M21.625,6 C24.0412458,6 26,7.95875422 26,10.375 C26,12.7912458 24.0412458,14.75 21.625,14.75 C19.2087542,14.75 17.25,12.7912458 17.25,10.375 C17.25,7.95875422 19.2087542,6 21.625,6 Z"
        style="fill: rgb(51, 51, 51);"
    ></path>
</svg>