<svg
    xmlns="http://www.w3.org/2000/svg"
    id="game-point-multiplier"
    data-functional-selector="icon"
    viewBox="0 0 32 32"
    focusable="false"
    stroke="none"
    strokeWidth="0"
>
    <path
        d="M16.4473,22.1055 C16.1663,21.9645 15.8343,21.9645 15.5523,22.1055 L13.2593,23.2515 L13.7773,19.6325 C14.4763,19.8675 15.2223,20.0005 16.0003,20.0005 C16.7773,20.0005 17.5233,19.8675 18.2223,19.6325 L18.7403,23.2515 L16.4473,22.1055 Z M17,11.5 L16,8.5 L15,11.5 L12,11.5 L14,13.5 L13,16.5 L16,14.5 L19,16.5 L18,13.5 L20,11.5 L17,11.5 Z M11.0003,13.0005 C11.0003,10.2425 13.2433,8.0005 16.0003,8.0005 C18.7573,8.0005 21.0003,10.2425 21.0003,13.0005 C21.0003,15.7575 18.7573,18.0005 16.0003,18.0005 C13.2433,18.0005 11.0003,15.7575 11.0003,13.0005 L11.0003,13.0005 Z M20.1033,18.6585 C21.8553,17.3845 23.0003,15.3265 23.0003,13.0005 C23.0003,9.1405 19.8603,6.0005 16.0003,6.0005 C12.1393,6.0005 9.0003,9.1405 9.0003,13.0005 C9.0003,15.3265 10.1443,17.3845 11.8963,18.6585 L11.0103,24.8585 C10.9573,25.2265 11.1143,25.5935 11.4153,25.8115 C11.7183,26.0295 12.1143,26.0605 12.4473,25.8945 L16.0003,24.1185 L19.5523,25.8945 C19.6943,25.9655 19.8473,26.0005 20.0003,26.0005 C20.2063,26.0005 20.4113,25.9365 20.5853,25.8115 C20.8853,25.5935 21.0433,25.2265 20.9893,24.8585 L20.1033,18.6585 Z"
        style="fill: rgb(51, 51, 51);"
    ></path>
</svg>