<svg xmlns="http://www.w3.org/2000/svg" xmlns:xlink="http://www.w3.org/1999/xlink" width="32" height="32" viewBox="0 0 32 32">
  <defs>
    <path id="language-black-a" d="M15.9995,6 C10.4775,6 5.9995,10.477 5.9995,16 C5.9995,21.523 10.4775,26 15.9995,26 C21.5225,26 25.9995,21.523 25.9995,16 C25.9995,10.477 21.5225,6 15.9995,6 M19.1025,23.373 C19.5215,22.253 19.8615,21.128 20.0905,20 L22.9175,20 C22.0475,21.498 20.7115,22.694 19.1025,23.373 M15.2625,23.962 L14.9285,23.128 C14.5125,22.089 14.2035,21.044 13.9685,20 L18.0315,20 C17.7965,21.044 17.4875,22.089 17.0715,23.128 L16.7375,23.962 C16.4945,23.985 16.2485,24 15.9995,24 C15.7505,24 15.5055,23.985 15.2625,23.962 M9.0825,20 L11.9095,20 C12.1385,21.128 12.4785,22.253 12.8975,23.373 C11.2885,22.694 9.9525,21.498 9.0825,20 M11.6035,18 L8.2635,18 C8.0975,17.359 7.9995,16.691 7.9995,16 C7.9995,15.309 8.0975,14.641 8.2635,14 L11.6035,14 C11.5355,14.668 11.4995,15.335 11.4995,16 C11.4995,16.665 11.5355,17.332 11.6035,18 M12.8975,8.627 C12.4785,9.747 12.1385,10.872 11.9095,12 L9.0825,12 C9.9525,10.502 11.2885,9.306 12.8975,8.627 M16.7375,8.038 L17.0715,8.872 C17.4875,9.911 17.7965,10.956 18.0315,12 L13.9685,12 C14.2035,10.956 14.5125,9.911 14.9285,8.872 L15.2625,8.038 C15.5055,8.015 15.7505,8 15.9995,8 C16.2485,8 16.4945,8.015 16.7375,8.038 M18.3765,18 L13.6235,18 C13.5475,17.331 13.4995,16.664 13.4995,16 C13.4995,15.336 13.5475,14.668 13.6235,14 L18.3765,14 C18.4525,14.668 18.4995,15.336 18.4995,16 C18.4995,16.664 18.4525,17.331 18.3765,18 M22.9175,12 L20.0905,12 C19.8615,10.872 19.5215,9.747 19.1025,8.627 C20.7115,9.306 22.0475,10.502 22.9175,12 M23.9995,16 C23.9995,16.691 23.9025,17.359 23.7365,18 L20.3955,18 C20.4645,17.332 20.4995,16.665 20.4995,16 C20.4995,15.335 20.4645,14.668 20.3955,14 L23.7365,14 C23.9025,14.641 23.9995,15.309 23.9995,16"/>
  </defs>
  <use fill="#333" fill-rule="evenodd" xlink:href="#language-black-a"/>
</svg>
