<svg id="Layer_1" data-name="Layer 1" xmlns="http://www.w3.org/2000/svg" xmlns:xlink="http://www.w3.org/1999/xlink" viewBox="0 0 344 136"><defs><style>.cls-1{fill:#f35;}.cls-2{fill:#a2d1f2;}.cls-3{clip-path:url(#clip-path);}.cls-4{fill:#b5061f;}.cls-5{clip-path:url(#clip-path-2);}.cls-6{fill:#45a3e5;opacity:0.24;}</style><clipPath id="clip-path"><rect class="cls-1" x="364" width="344" height="136"/></clipPath><clipPath id="clip-path-2"><rect class="cls-2" width="344" height="136"/></clipPath></defs><rect class="cls-1" x="364" width="344" height="136"/><g class="cls-3"><path class="cls-4" d="M475.49,57.71,458.32,27.06a1.22,1.22,0,0,0-1.65-.47l-16.55,9.15a1.21,1.21,0,0,0-.47,1.64L446,48.73H446l-1.64-3s-6.67,8-6.79,8.23l6,10.06-41,21.42c-.16-.58-.31-1.17-.44-1.77A8.85,8.85,0,0,0,404.2,81a8.71,8.71,0,0,0,.54-6.71,8.85,8.85,0,0,0-2.8-4.09,29.21,29.21,0,0,0-.59-11A4.64,4.64,0,0,1,403,60.45l1.35-1a6.3,6.3,0,0,0-2.84-2l2.82-.12c-3.81-10.09-3.59-17.78-24-19.78-29.79-2.92-38.81,49.73-38.81,49.73l18,5.15-.95.34h0l-8.58,3c-.19,0-.38,0-.57,0a8.19,8.19,0,0,0-8,6.24h0l-9.62,26.52a6.84,6.84,0,0,0-.72,1.63c-.07.28-.12.55-.17.82l-.07.21,0,0a6.39,6.39,0,0,0,3.83,6.59h0a6.23,6.23,0,0,0,.65.24L356,145.6v6.84c-44.47,44.17-18.28,77.88-39.08,107a16,16,0,0,0,2.67,3.81l-8.31,13.88-.57.41h0l-8.32,2.84,13.76,25,17.15.73c1.92-9.35-9.19-9.67-9.19-9.67L319.62,280s3.73-3.43,8.83-8.38c5.27,4.21,11.73,8.3,18.16,10.32l2.63-.77s3.19,1.86,5.59,3.18l-.94,1.31c6.88,3.74,15.66,6.25,20.76,7.84l-.34-2.74,1.31.36a66.42,66.42,0,0,0,14.24,2.33A112.12,112.12,0,0,1,388.73,306l35.24.09c-.29-8.2-12.3-10.59-12.3-10.59l-.33.14a112.84,112.84,0,0,0-12.2-4.28l.11-2c2.05-.63,4-1.36,5.74-2h0c2.87-1.12,4.88-2.07,4.88-2.07-20.93-21.12,2.71-48.59,1.72-81.45s-16.87-51.32-16.87-51.32V141.5c-.41-.17-.87-.33-1.35-.48l7.45-21.92-9.2-13.9,63.73-39.43-6.14-11.24h0L456.82,68a1.2,1.2,0,0,0,1.64.46L475,59.35A1.21,1.21,0,0,0,475.49,57.71ZM403.65,74.64a7.66,7.66,0,0,1-1.87,7.74,59.56,59.56,0,0,1-.87-7.64,27.88,27.88,0,0,0,.8-3.21A7.58,7.58,0,0,1,403.65,74.64Zm-51.86,43.27,3.74,18.26-9.86-5.53Zm32.55-23.72-2.4-.57L381,93.5l1.26-2.91,9.05.72-6.6,3.45Z"/></g><rect class="cls-2" width="344" height="136"/><g class="cls-5"><rect class="cls-6" x="2.57" y="-11.13" width="158.27" height="158.27" transform="translate(72.02 -37.85) rotate(45)"/></g></svg>