<svg id="Layer_1" data-name="Layer 1" xmlns="http://www.w3.org/2000/svg" xmlns:xlink="http://www.w3.org/1999/xlink" viewBox="0 0 344 136"><defs><style>.cls-1,.cls-6{fill:#f35;}.cls-2{clip-path:url(#clip-path);}.cls-3,.cls-4{fill:#c60929;}.cls-3{opacity:0.5;}.cls-5{fill:#e21b3c;}.cls-6{fill-rule:evenodd;}.cls-7{fill:#b5061f;}</style><clipPath id="clip-path"><rect class="cls-1" width="344" height="136"/></clipPath></defs><rect class="cls-1" width="344" height="136"/><g class="cls-2"><polygon class="cls-3" points="209.08 56.96 360.85 144.59 360.85 -30.66 209.08 56.96"/><path class="cls-4" d="M154.16,115.31H-13.9a3.83,3.83,0,0,1-3.82-3.82V16.09a3.83,3.83,0,0,1,3.82-3.83H154.16A3.83,3.83,0,0,1,158,16.09v95.4A3.83,3.83,0,0,1,154.16,115.31Z"/><rect class="cls-5" x="-12.85" y="17.04" width="165.86" height="91.39"/><rect class="cls-1" x="0.54" y="21.15" width="139.18" height="4.68"/><rect class="cls-4" x="38.1" y="30.52" width="64.05" height="36.99"/><ellipse class="cls-1" cx="5.7" cy="48.97" rx="7.84" ry="7.93"/><ellipse class="cls-1" cx="134.46" cy="48.97" rx="7.84" ry="7.93"/><path class="cls-4" d="M68.7,87.11v-12a1.62,1.62,0,0,0-1.63-1.63H-9.12a1.61,1.61,0,0,0-1.62,1.63v12a1.61,1.61,0,0,0,1.62,1.63H67.17A1.67,1.67,0,0,0,68.7,87.11Z"/><rect class="cls-1" x="3.69" y="79.85" width="56.21" height="2.49"/><path class="cls-4" d="M68.7,104.7v-12A1.62,1.62,0,0,0,67.07,91H-9.12a1.61,1.61,0,0,0-1.62,1.63v12a1.61,1.61,0,0,0,1.62,1.63H67.17A1.67,1.67,0,0,0,68.7,104.7Z"/><rect class="cls-1" x="3.69" y="97.44" width="49.71" height="2.49"/><path class="cls-4" d="M150.91,104.7v-12A1.62,1.62,0,0,0,149.28,91H73a1.62,1.62,0,0,0-1.63,1.63v12A1.62,1.62,0,0,0,73,106.33h76.28A1.76,1.76,0,0,0,150.91,104.7Z"/><rect class="cls-1" x="76.15" y="96" width="5.16" height="5.16"/><rect class="cls-1" x="85.9" y="97.44" width="56.02" height="2.49"/><path class="cls-4" d="M150.91,87.11v-12a1.62,1.62,0,0,0-1.63-1.63H73a1.62,1.62,0,0,0-1.63,1.63v12A1.62,1.62,0,0,0,73,88.74h76.28A1.76,1.76,0,0,0,150.91,87.11Z"/><polygon class="cls-6" points="78.83 77.94 81.89 81 78.83 84.05 75.67 81 78.83 77.94"/><rect class="cls-1" x="85.9" y="79.85" width="40.15" height="2.49"/><path class="cls-7" d="M205,89.31,247.35,73.5a1.27,1.27,0,0,1,1.65.66l9,22.6a1.28,1.28,0,0,1-.78,1.62l-8.53,3.4,2.08,9.1-7,1.89,10.31,33.69.6-4.15h-1.06l1.63-14.41s5-18.22,28.7-27.23a18.77,18.77,0,0,1-8.8-10.33,38.93,38.93,0,0,1-1.48-16.5,7.28,7.28,0,0,1-1.83-5.74,10.13,10.13,0,0,1,.72-2.34l3.1-1.19c-.25.75-.4,1.22-.49,1.52h0a32.51,32.51,0,0,1,3.12-7.41,2.89,2.89,0,0,0-.42.32l3.79-5.77L271.33,43.11l2.56-3.45L283.69,53h0l-9.8-13.37s1.29-2.89,10.43-4.34l5,8.36-1.26-8.75a45.36,45.36,0,0,1,19.05,3.51l-1.07,9.35,4-8.1a26.09,26.09,0,0,1,6.17,4.13l-3.69,6.62,5.87-4.4c12.54,14.43,11.37,35.92.26,44.3L314,86.67l3,9.1h.34c44.56,1.33,47.4,32.12,47.4,32.12l1,14.41h-2.48l-4.66,64.48H340l-.26-5.27-79.28.39c.18-9.63.55-17.83,1-24.79-17.7,7.65-22.69-12.05-22.69-12.05l-10.33-48.13c-1.81.51-3,.85-3.05.9l-1.17-6.35-9.14,3.64a1.27,1.27,0,0,1-1.68-.65l-9.27-23.54A1.27,1.27,0,0,1,205,89.31Z"/><path class="cls-7" d="M111.49,57.71,94.32,27.06a1.22,1.22,0,0,0-1.65-.47L76.12,35.74a1.21,1.21,0,0,0-.47,1.64L82,48.73H82l-1.64-3s-6.67,8-6.79,8.23l6,10.06-41,21.42c-.16-.58-.31-1.17-.44-1.77A8.85,8.85,0,0,0,40.2,81a8.71,8.71,0,0,0,.54-6.71,8.85,8.85,0,0,0-2.8-4.09,29.21,29.21,0,0,0-.59-11A4.64,4.64,0,0,1,39,60.45l1.35-1a6.3,6.3,0,0,0-2.84-2l2.82-.12c-3.81-10.09-3.59-17.78-24-19.78C-13.38,34.64-22.4,87.29-22.4,87.29l18,5.15-1,.34h0l-8.58,3c-.19,0-.38,0-.57,0a8.19,8.19,0,0,0-8,6.24h0l-9.62,26.52a6.84,6.84,0,0,0-.72,1.63c-.07.28-.12.55-.17.82l-.07.21.05,0a6.39,6.39,0,0,0,3.83,6.59h0a6.23,6.23,0,0,0,.65.24L-8,145.6v6.84c-44.47,44.17-18.28,77.88-39.08,107a16,16,0,0,0,2.67,3.81l-8.31,13.88-.57.41h0l-8.32,2.84,13.76,25,17.15.73c1.92-9.35-9.19-9.67-9.19-9.67L-44.38,280s3.73-3.43,8.83-8.38c5.27,4.21,11.73,8.3,18.16,10.32l2.63-.77s3.19,1.86,5.59,3.18l-.94,1.31c6.88,3.74,15.66,6.25,20.76,7.84l-.34-2.74,1.31.36a66.42,66.42,0,0,0,14.24,2.33A112.12,112.12,0,0,1,24.73,306l35.24.09c-.29-8.2-12.3-10.59-12.3-10.59l-.33.14a112.84,112.84,0,0,0-12.2-4.28l.11-2c2-.63,4-1.36,5.74-2h0c2.87-1.12,4.88-2.07,4.88-2.07-20.93-21.12,2.71-48.59,1.72-81.45s-16.87-51.32-16.87-51.32V141.5c-.41-.17-.87-.33-1.35-.48l7.45-21.92-9.2-13.9L91.35,65.77,85.21,54.53h0L92.82,68a1.2,1.2,0,0,0,1.64.46L111,59.35A1.21,1.21,0,0,0,111.49,57.71ZM39.65,74.64a7.66,7.66,0,0,1-1.87,7.74,59.56,59.56,0,0,1-.87-7.64,27.88,27.88,0,0,0,.8-3.21A7.58,7.58,0,0,1,39.65,74.64Zm-51.86,43.27,3.74,18.26-9.86-5.53ZM20.34,94.19l-2.4-.57L17,93.5l1.26-2.91,9,.72-6.6,3.45Z"/></g></svg>