<svg id="Layer_1" data-name="Layer 1" xmlns="http://www.w3.org/2000/svg" xmlns:xlink="http://www.w3.org/1999/xlink" viewBox="0 0 344 136"><defs><style>.cls-1{fill:#f35;}.cls-2{fill:#66bf39;}.cls-3{clip-path:url(#clip-path);}.cls-4{fill:#b5061f;}.cls-5{clip-path:url(#clip-path-2);}.cls-6{fill:#26890c;opacity:0.35;}.cls-7{fill:#2c8c09;}.cls-8,.cls-9{fill:#b2df9c;}.cls-8{opacity:0.8;}</style><clipPath id="clip-path"><rect class="cls-1" x="-364" width="344" height="136"/></clipPath><clipPath id="clip-path-2"><rect class="cls-2" width="344" height="136"/></clipPath></defs><rect class="cls-1" x="-364" width="344" height="136"/><g class="cls-3"><path class="cls-4" d="M-159,89.31l42.37-15.81a1.27,1.27,0,0,1,1.65.66l9,22.6a1.28,1.28,0,0,1-.78,1.62l-8.53,3.4,2.08,9.1-7,1.89,10.31,33.69.6-4.15h-1.06l1.63-14.41s5-18.22,28.7-27.23a18.77,18.77,0,0,1-8.8-10.33,38.93,38.93,0,0,1-1.48-16.5,7.28,7.28,0,0,1-1.83-5.74,10.13,10.13,0,0,1,.72-2.34l3.1-1.19c-.25.75-.4,1.22-.49,1.52h0a32.51,32.51,0,0,1,3.12-7.41,2.89,2.89,0,0,0-.42.32l3.79-5.77L-92.67,43.11l2.56-3.45L-80.31,53h0l-9.8-13.37s1.29-2.89,10.43-4.34l5,8.36-1.26-8.75a45.36,45.36,0,0,1,19.05,3.51l-1.07,9.35,4-8.1a26.09,26.09,0,0,1,6.17,4.13l-3.69,6.62,5.87-4.4C-33,60.47-34.22,82-45.33,90.34L-50,86.67l3,9.1h.34C-2,97.11.81,127.9.81,127.9l1,14.41H-.63l-4.66,64.48H-24l-.26-5.27-79.28.39c.18-9.63.55-17.83,1-24.79-17.7,7.65-22.69-12.05-22.69-12.05l-10.33-48.13c-1.81.51-3,.85-3.05.9l-1.17-6.35-9.14,3.64a1.27,1.27,0,0,1-1.68-.65l-9.27-23.54A1.27,1.27,0,0,1-159,89.31Z"/></g><rect class="cls-2" width="344" height="136"/><g class="cls-5"><rect class="cls-6" x="160.17" y="43.24" width="195.24" height="133.67"/><path class="cls-7" d="M30.76,90.52,59.83,51.61A1.9,1.9,0,0,0,59.46,49L37.82,33.14a2,2,0,0,0-2.67.39L23.88,48.63,18.2,44.51,14,50.23l.07.05-.48.69L-5.88,35.24l-13,7.77L8.86,57.68,5.15,62.91l5.27,3.74-4.34,5.8a1.88,1.88,0,0,0,.38,2.63L28.1,90.92A1.94,1.94,0,0,0,30.76,90.52Z"/><path class="cls-7" d="M135.45,194.83,172.66,113l3,1.27a1.46,1.46,0,0,0,2-.63L188,93.49a1.45,1.45,0,0,0-.63-1.95L149.79,72.45a1.46,1.46,0,0,0-1.95.63l-10.4,20.16a1.45,1.45,0,0,0,.63,2l10.24,5.24S147,112.86,147,113.16l12.66,6L133.12,167.9"/><rect class="cls-8" x="11.49" y="62.02" width="76.85" height="20.53"/><rect class="cls-9" x="11.49" y="88.05" width="121.65" height="35.54"/><path class="cls-2" d="M23.5,71.51h1.85v3.55a5.1,5.1,0,0,1-1.65.82,6.09,6.09,0,0,1-1.88.29,5.07,5.07,0,0,1-2.45-.58A4.28,4.28,0,0,1,17.66,74a4.69,4.69,0,0,1,0-4.66,4.31,4.31,0,0,1,1.72-1.61,5.17,5.17,0,0,1,2.47-.58,5.4,5.4,0,0,1,2.09.39,4,4,0,0,1,1.57,1.12l-1.3,1.2a3,3,0,0,0-2.26-1,3.11,3.11,0,0,0-1.48.35,2.47,2.47,0,0,0-1,1,3,3,0,0,0,0,2.91,2.57,2.57,0,0,0,1,1,3,3,0,0,0,1.47.36,3.26,3.26,0,0,0,1.57-.38Z"/><path class="cls-2" d="M32.2,70A2.85,2.85,0,0,1,33,72.19V76H31.21v-.83a2.18,2.18,0,0,1-2.05.93,3.23,3.23,0,0,1-1.34-.26,2.09,2.09,0,0,1-.87-.72,1.89,1.89,0,0,1-.3-1,1.74,1.74,0,0,1,.71-1.48,3.56,3.56,0,0,1,2.17-.53h1.55a1.28,1.28,0,0,0-.38-1,1.77,1.77,0,0,0-1.17-.34,3.44,3.44,0,0,0-1.05.17,2.53,2.53,0,0,0-.88.46L26.9,70a4.72,4.72,0,0,1,1.32-.6,6,6,0,0,1,1.58-.21A3.49,3.49,0,0,1,32.2,70Zm-1.67,4.63a1.21,1.21,0,0,0,.55-.68v-.69H29.75c-.8,0-1.2.26-1.2.79a.7.7,0,0,0,.29.59,1.32,1.32,0,0,0,.81.22A1.7,1.7,0,0,0,30.53,74.58Z"/><path class="cls-2" d="M45.4,70a3,3,0,0,1,.75,2.22V76H44.2V72.47a1.82,1.82,0,0,0-.33-1.19,1.18,1.18,0,0,0-.95-.39,1.39,1.39,0,0,0-1.08.44,1.91,1.91,0,0,0-.4,1.32V76H39.49V72.47c0-1-.43-1.58-1.27-1.58a1.41,1.41,0,0,0-1.08.44,1.91,1.91,0,0,0-.4,1.32V76h-2V69.3h1.86v.78a2.41,2.41,0,0,1,.92-.65,3.09,3.09,0,0,1,1.2-.23,3,3,0,0,1,1.28.28,2.37,2.37,0,0,1,.93.82,2.69,2.69,0,0,1,1-.81,3.31,3.31,0,0,1,1.38-.29A2.68,2.68,0,0,1,45.4,70Z"/><path class="cls-2" d="M54.52,73.21H49.43a1.58,1.58,0,0,0,.65,1,2.17,2.17,0,0,0,1.28.36,2.45,2.45,0,0,0,.93-.16,2.07,2.07,0,0,0,.75-.49l1,1.13a3.49,3.49,0,0,1-2.77,1.08,4.51,4.51,0,0,1-2-.44A3.26,3.26,0,0,1,48,74.45a3.38,3.38,0,0,1-.48-1.79,3.45,3.45,0,0,1,.47-1.78,3.18,3.18,0,0,1,1.29-1.23,3.7,3.7,0,0,1,1.83-.45,3.66,3.66,0,0,1,1.78.43,3.19,3.19,0,0,1,1.26,1.21,3.7,3.7,0,0,1,.45,1.85S54.54,72.89,54.52,73.21ZM50,71.05a1.56,1.56,0,0,0-.55,1h3.31a1.6,1.6,0,0,0-1.65-1.4A1.67,1.67,0,0,0,50,71.05Z"/><path class="cls-2" d="M65.33,67.67a2.85,2.85,0,0,1,1.31,1.1,3,3,0,0,1,.47,1.68,3,3,0,0,1-.47,1.68,2.85,2.85,0,0,1-1.31,1.1,5,5,0,0,1-2,.38H61.55V76h-2V67.28h3.79A4.85,4.85,0,0,1,65.33,67.67Zm-.75,3.9a1.56,1.56,0,0,0,0-2.25,2.12,2.12,0,0,0-1.38-.39H61.55v3H63.2A2.12,2.12,0,0,0,64.58,71.57Z"/><path class="cls-2" d="M68.54,67.28h2V76h-2Z"/><path class="cls-2" d="M80.66,67.28V76H79l-4.36-5.31V76h-2V67.28h1.67l4.35,5.31V67.28Z"/><path class="cls-2" d="M82.47,71.29a1.21,1.21,0,0,1-.35-.88,1.15,1.15,0,0,1,.35-.86,1.26,1.26,0,0,1,1.72,0,1.11,1.11,0,0,1,.35.86,1.22,1.22,0,0,1-2.07.88Zm0,4.48a1.18,1.18,0,0,1-.35-.87,1.15,1.15,0,0,1,.35-.87,1.29,1.29,0,0,1,1.72,0,1.12,1.12,0,0,1,.35.87,1.22,1.22,0,0,1-2.07.87Z"/><path class="cls-2" d="M28.58,94.7v22.19H21.1V100.34H17.29V94.7Z"/><path class="cls-2" d="M49.06,111.09v5.8H31.27V112.3l8-7.42a6.72,6.72,0,0,0,1.4-1.68,3.09,3.09,0,0,0,.35-1.37,1.57,1.57,0,0,0-.56-1.28,2.42,2.42,0,0,0-1.6-.46,3.58,3.58,0,0,0-1.9.54,3.52,3.52,0,0,0-1.36,1.52L30,99.33a9.26,9.26,0,0,1,3.71-3.76,11.84,11.84,0,0,1,5.9-1.38,11.92,11.92,0,0,1,4.66.86,7.26,7.26,0,0,1,3.17,2.44,6.09,6.09,0,0,1,1.14,3.65,7.78,7.78,0,0,1-.78,3.44,12.92,12.92,0,0,1-3,3.63l-3.17,2.88Z"/><path class="cls-2" d="M67,105.78a6.13,6.13,0,0,1,1.37,4,6.87,6.87,0,0,1-1.09,3.73,7.76,7.76,0,0,1-3.38,2.8,13.21,13.21,0,0,1-5.67,1.08,21.92,21.92,0,0,1-4.68-.51,14.46,14.46,0,0,1-4.07-1.49L52,109.89a12.27,12.27,0,0,0,6,1.61,4.24,4.24,0,0,0,2.09-.44,1.39,1.39,0,0,0,.79-1.27c0-1-.88-1.52-2.63-1.52H55.27v-4.6l3.27-3.33H50.61V94.7H67.16v4.6L63,103.48A7.23,7.23,0,0,1,67,105.78Z"/><path class="cls-2" d="M91.57,113.09H88.62v3.8H81.36v-3.8H69.85v-4.76L79.27,94.7h7.67l-8.37,12.59h3v-3.4h7v3.4h2.95Z"/><path class="cls-2" d="M108.55,104.48a6.54,6.54,0,0,1,2.2,5.12,7.21,7.21,0,0,1-1.09,3.85,7.79,7.79,0,0,1-3.38,2.86,13.08,13.08,0,0,1-5.68,1.09,21.76,21.76,0,0,1-4.67-.51,14.65,14.65,0,0,1-4.08-1.49l2.54-5.51a12.64,12.64,0,0,0,2.93,1.2,11.39,11.39,0,0,0,3,.41,4.2,4.2,0,0,0,2.11-.46,1.41,1.41,0,0,0,.81-1.28,1.29,1.29,0,0,0-.73-1.19,6.14,6.14,0,0,0-2.63-.4H93.44L94.55,94.7h14.74v5.64H100.7l-.16,2.19h1.14Q106.35,102.53,108.55,104.48Z"/><path class="cls-2" d="M128.06,103.42a7.16,7.16,0,0,1,2.79,2.5,6.67,6.67,0,0,1,1,3.71,7.17,7.17,0,0,1-1.18,4.09,7.77,7.77,0,0,1-3.25,2.73,10.87,10.87,0,0,1-4.57,1,11.94,11.94,0,0,1-5.59-1.24,8.74,8.74,0,0,1-3.73-3.67,12.38,12.38,0,0,1-1.33-6,13.4,13.4,0,0,1,1.54-6.59,10.27,10.27,0,0,1,4.31-4.25,13.7,13.7,0,0,1,6.45-1.46,15.63,15.63,0,0,1,3.8.46,10.35,10.35,0,0,1,3.08,1.29l-2.7,5.23a6.77,6.77,0,0,0-4-1.17,5.11,5.11,0,0,0-3.19,1,4.58,4.58,0,0,0-1.63,2.81,7.39,7.39,0,0,1,4.41-1.24A8.21,8.21,0,0,1,128.06,103.42Zm-4,8.21a2.18,2.18,0,0,0,.64-1.65,2.34,2.34,0,0,0-3.93-1.66,2.18,2.18,0,0,0-.64,1.66,2.14,2.14,0,0,0,.64,1.65,2.56,2.56,0,0,0,3.29,0Z"/></g></svg>