<svg
  xmlns="http://www.w3.org/2000/svg"
  id="change-question-type"
  data-functional-selector="icon"
  viewBox="0 0 32 32"
  focusable="false"
  stroke="none"
  strokeWidth="0"
>
  <path
    d="M15.1663167,11 C16.0371581,11 16.8763325,11.1216667 17.6663398,11.3458333 L17.6663398,11.3458333 L17.6663398,13.0966667 C16.8938326,12.8216667 16.0504915,12.6666667 15.1663167,12.6666667 C11.4904494,12.6666667 8.49958851,15.2833333 8.49958851,18.5 C8.49958851,19.7808333 8.97292621,21 9.86793447,22.0266667 C10.1479371,22.3483333 10.140437,22.8291667 9.85043431,23.1416667 L9.85043431,23.1416667 L8.74375743,24.3333333 L15.1663167,24.3333333 C18.8421839,24.3333333 21.8330449,21.7166667 21.8330449,18.5 C21.8330449,18.2166667 21.8022113,17.94 21.7572108,17.6666667 L21.7572108,17.6666667 L23.4455598,17.6666667 C23.4788934,17.9408333 23.4997269,18.2183333 23.4997269,18.5 C23.4997269,22.635 19.7621924,26 15.1663167,26 L15.1663167,26 L6.83290647,26 C6.50123674,26 6.20123397,25.8033333 6.06956609,25.5 C5.93706487,25.1958333 5.99706542,24.8425 6.2220675,24.6 L6.2220675,24.6 L8.14375189,22.53 C7.28374396,21.3266667 6.83290647,19.9458333 6.83290647,18.5 C6.83290647,14.365 10.5712743,11 15.1663167,11 Z M22.6666359,14.3333333 C23.1266402,14.3333333 23.4999769,14.7066667 23.4999769,15.1666667 C23.4999769,15.6275 23.1266402,16 22.6666359,16 C22.2066317,16 21.8332949,15.6275 21.8332949,15.1666667 C21.8332949,14.7066667 22.2066317,14.3333333 22.6666359,14.3333333 Z M22.6666359,6 C24.5049862,6 26,7.495 26,9.33333333 C26,10.8833333 24.9358235,12.19 23.4999769,12.5616667 L23.4999769,13.5 L21.8332949,13.5 L21.8332949,11 L22.6666359,11 C23.5858111,11 24.333318,10.2525 24.333318,9.33333333 C24.333318,8.41416667 23.5858111,7.66666667 22.6666359,7.66666667 C21.7474608,7.66666667 20.9999539,8.41416667 20.9999539,9.33333333 L19.3332718,9.33333333 C19.3332718,7.495 20.8282856,6 22.6666359,6 Z"
    style="fill: rgb(51, 51, 51);"
  ></path>
</svg>